mtllib ./6fv.mtl

g s.0029
usemap Standard737373
usemtl Standard737373
v -0.2403825 1.042553 0.1491084
v -0.2405637 1.044205 0.1512754
v -0.2397204 1.045568 0.1534873
v -0.2379811 1.046432 0.1554074
v -0.2356105 1.046668 0.1567434
v -0.2329696 1.046238 0.1572918
v -0.2304604 1.045209 0.1569692
v -0.2284649 1.043737 0.1558247
v -0.2272869 1.042045 0.1540325
v -0.2271057 1.040393 0.1518655
v -0.227949 1.03903 0.1496536
v -0.2296883 1.038166 0.1477335
v -0.2320589 1.03793 0.1463975
v -0.2346998 1.03836 0.1458491
v -0.237209 1.039389 0.1461717
v -0.2392045 1.040862 0.1473162
v -0.2468805 1.045965 0.1439961
v -0.2472687 1.049506 0.1486397
v -0.2454617 1.052425 0.1533796
v -0.2417346 1.054278 0.1574941
v -0.2366549 1.054783 0.1603569
v -0.2309958 1.053862 0.1615321
v -0.2256189 1.051656 0.1608408
v -0.2213428 1.048501 0.1583883
v -0.2188185 1.044877 0.1545479
v -0.2184303 1.041336 0.1499043
v -0.2202373 1.038417 0.1451644
v -0.2239644 1.036564 0.1410499
v -0.2290441 1.036059 0.1381871
v -0.2347032 1.03698 0.1370119
v -0.2400801 1.039186 0.1377032
v -0.2443562 1.042341 0.1401557
v -0.2518192 1.054056 0.1354668
v -0.2524122 1.059466 0.1425601
v -0.2496519 1.063925 0.1498004
v -0.2439587 1.066756 0.1560854
v -0.2361992 1.067526 0.1604584
v -0.2275548 1.06612 0.1622535
v -0.2193415 1.062751 0.1611976
v -0.2128097 1.057931 0.1574513
v -0.2089537 1.052395 0.151585
v -0.2083607 1.046986 0.1444917
v -0.211121 1.042527 0.1372515
v -0.2168142 1.039696 0.1309664
v -0.2245737 1.038925 0.1265934
v -0.2332181 1.040332 0.1247983
v -0.2414314 1.043701 0.1258542
v -0.2479632 1.048521 0.1296005
v -0.2513084 1.061937 0.1289866
v -0.2519554 1.067839 0.136726
v -0.2489438 1.072704 0.1446258
v -0.242732 1.075793 0.1514833
v -0.2342657 1.076634 0.1562546
v -0.2248338 1.075099 0.1582133
v -0.2158724 1.071423 0.1570612
v -0.2087455 1.066165 0.1529736
v -0.2045384 1.060125 0.1465729
v -0.2038914 1.054223 0.1388336
v -0.206903 1.049357 0.1309338
v -0.2131149 1.046269 0.1240763
v -0.2215811 1.045428 0.119305
v -0.231013 1.046962 0.1173463
v -0.2399745 1.050638 0.1184984
v -0.2471013 1.055897 0.122586
v -0.2468931 1.069666 0.1239746
v -0.2474861 1.075075 0.1310679
v -0.2447259 1.079535 0.1383082
v -0.2390326 1.082365 0.1445932
v -0.2312732 1.083136 0.1489662
v -0.2226287 1.08173 0.1507613
v -0.2144154 1.07836 0.1497054
v -0.2078836 1.073541 0.1459591
v -0.2040276 1.068005 0.1400928
v -0.2034346 1.062596 0.1329995
v -0.2061949 1.058136 0.1257592
v -0.2118881 1.055306 0.1194742
v -0.2196476 1.054535 0.1151012
v -0.228292 1.055941 0.1133061
v -0.2365053 1.059311 0.114362
v -0.2430372 1.06413 0.1181083
v -0.2370283 1.077184 0.1210117
v -0.2374165 1.080725 0.1256553
v -0.2356095 1.083645 0.1303952
v -0.2318825 1.085498 0.1345097
v -0.2268027 1.086002 0.1373725
v -0.2211436 1.085082 0.1385477
v -0.2157667 1.082876 0.1378564
v -0.2114906 1.079721 0.1354039
v -0.2089663 1.076097 0.1315635
v -0.2085781 1.072556 0.1269199
v -0.2103851 1.069636 0.12218
v -0.2141122 1.067783 0.1180655
v -0.219192 1.067279 0.1152027
v -0.2248511 1.068199 0.1140275
v -0.230228 1.070405 0.1147188
v -0.234504 1.07356 0.1171713
v -0.2285599 1.080016 0.1215271
v -0.2287411 1.081669 0.1236941
v -0.2278978 1.083031 0.125906
v -0.2261585 1.083896 0.1278261
v -0.2237879 1.084131 0.1291621
v -0.221147 1.083702 0.1297105
v -0.2186378 1.082672 0.1293879
v -0.2166423 1.0812 0.1282434
v -0.2154643 1.079509 0.1264512
v -0.2152831 1.077856 0.1242842
v -0.2161264 1.076494 0.1220723
v -0.2178657 1.075629 0.1201522
v -0.2202363 1.075394 0.1188162
v -0.2228772 1.075823 0.1182678
v -0.2253864 1.076853 0.1185904
v -0.2273819 1.078325 0.1197349
v -0.234081 1.041519 0.1521451
v -0.2217658 1.080543 0.1234145

vn -0.4983644 -0.7391176 0.4531426
vn -0.5056108 -0.6730145 0.5398234
vn -0.4718803 -0.61852 0.628301
vn -0.402308 -0.5839303 0.7051055
vn -0.3074855 -0.5745115 0.7585441
vn -0.2018489 -0.5916975 0.7804815
vn -0.1014803 -0.6328717 0.7675774
vn -0.02165989 -0.6917661 0.7217968
vn 0.02546031 -0.7594141 0.6501092
vn 0.03270676 -0.8255173 0.5634284
vn -0.001023806 -0.8800118 0.4749508
vn -0.07059621 -0.9146014 0.3981462
vn -0.1654185 -0.9240202 0.3447076
vn -0.2710552 -0.9068342 0.3227704
vn -0.3714238 -0.86566 0.3356744
vn -0.4512441 -0.8067657 0.381455
vn -0.758284 -0.6026421 0.2486526
vn -0.7738121 -0.4609925 0.4343971
vn -0.7015324 -0.3442185 0.623992
vn -0.5524487 -0.2700978 0.7885731
vn -0.3492579 -0.2499146 0.9030845
vn -0.1228938 -0.2867417 0.9500928
vn 0.09218168 -0.3749723 0.9224415
vn 0.2632254 -0.5011744 0.8243402
vn 0.3641972 -0.6461346 0.6707239
vn 0.3797253 -0.787784 0.4849795
vn 0.3074456 -0.9045581 0.2953844
vn 0.1583619 -0.9786788 0.1308032
vn -0.04482875 -0.9988618 0.01629205
vn -0.271193 -0.9620348 -0.03071627
vn -0.4862686 -0.873804 -0.003064893
vn -0.6573121 -0.7476021 0.09503634
vn -0.9558309 -0.2789761 -0.09251823
vn -0.9795505 -0.06260292 0.1912113
vn -0.8691414 0.1157723 0.4808222
vn -0.6414125 0.2289935 0.732224
vn -0.3310333 0.2598238 0.9071431
vn 0.01474363 0.2035695 0.9789495
vn 0.3432769 0.06879495 0.9367114
vn 0.6045505 -0.1239818 0.786859
vn 0.7587876 -0.3454121 0.5522065
vn 0.7825071 -0.5617853 0.268477
vn 0.672098 -0.7401606 -0.02113407
vn 0.4443688 -0.8533818 -0.2725359
vn 0.13399 -0.884212 -0.4474548
vn -0.2117871 -0.8279577 -0.5192612
vn -0.5403206 -0.6931831 -0.4770231
vn -0.8015938 -0.5004065 -0.3271709
vn -0.9354011 0.0362438 -0.3517261
vn -0.9612812 0.2723264 -0.04215192
vn -0.8408151 0.4669496 0.2738396
vn -0.5923424 0.5904841 0.5481414
vn -0.253691 0.6241227 0.7389938
vn 0.1235826 0.5627443 0.817341
vn 0.4820418 0.4156932 0.7712555
vn 0.7671146 0.2053564 0.6077532
vn 0.9354011 -0.03624384 0.3517261
vn 0.9612813 -0.2723264 0.04215194
vn 0.840815 -0.4669497 -0.2738397
vn 0.5923422 -0.5904842 -0.5481417
vn 0.253691 -0.6241227 -0.7389938
vn -0.1235827 -0.5627443 -0.817341
vn -0.482042 -0.415693 -0.7712554
vn -0.7671146 -0.2053565 -0.6077533
vn -0.7587875 0.3454121 -0.5522065
vn -0.7825071 0.5617853 -0.268477
vn -0.672098 0.7401605 0.02113391
vn -0.4443691 0.8533817 0.2725358
vn -0.13399 0.884212 0.4474548
vn 0.211787 0.8279577 0.5192612
vn 0.5403203 0.6931832 0.4770232
vn 0.8015938 0.5004064 0.3271708
vn 0.9558309 0.2789761 0.09251817
vn 0.9795505 0.06260292 -0.1912113
vn 0.8691413 -0.1157724 -0.4808224
vn 0.6414122 -0.2289935 -0.7322243
vn 0.3310334 -0.2598237 -0.9071431
vn -0.01474374 -0.2035695 -0.9789495
vn -0.3432772 -0.06879476 -0.9367113
vn -0.6045504 0.1239818 -0.7868592
vn -0.3641972 0.6461345 -0.670724
vn -0.3797253 0.787784 -0.4849794
vn -0.3074457 0.904558 -0.2953846
vn -0.1583621 0.9786787 -0.1308034
vn 0.04482877 0.9988618 -0.01629205
vn 0.2711929 0.9620348 0.03071629
vn 0.4862684 0.8738042 0.003064975
vn 0.6573122 0.7476021 -0.09503641
vn 0.758284 0.6026419 -0.2486526
vn 0.7738121 0.4609925 -0.4343971
vn 0.7015323 0.3442185 -0.6239921
vn 0.5524486 0.2700977 -0.7885733
vn 0.349258 0.2499146 -0.9030845
vn 0.1228937 0.2867417 -0.9500929
vn -0.09218188 0.3749725 -0.9224415
vn -0.2632253 0.5011743 -0.8243402
vn -0.02546031 0.7594142 -0.6501092
vn -0.03270676 0.8255173 -0.5634284
vn 0.001023791 0.8800118 -0.4749508
vn 0.07059613 0.9146014 -0.3981463
vn 0.1654185 0.9240202 -0.3447076
vn 0.2710552 0.9068342 -0.3227704
vn 0.3714237 0.86566 -0.3356743
vn 0.4512442 0.8067657 -0.381455
vn 0.4983643 0.7391176 -0.4531426
vn 0.5056108 0.6730145 -0.5398234
vn 0.4718803 0.61852 -0.628301
vn 0.4023078 0.5839303 -0.7051055
vn 0.3074856 0.5745115 -0.7585441
vn 0.2018489 0.5916975 -0.7804813
vn 0.1014802 0.6328719 -0.7675774
vn 0.02165993 0.691766 -0.7217968
vn -0.2463042 -0.7804853 0.5746104
vn 0.2463042 0.7804853 -0.5746104

vt 0 0.125
vt 0.0625 0.125
vt 0.125 0.125
vt 0.1875 0.125
vt 0.25 0.125
vt 0.3125 0.125
vt 0.375 0.125
vt 0.4375 0.125
vt 0.5 0.125
vt 0.5625 0.125
vt 0.625 0.125
vt 0.6875 0.125
vt 0.75 0.125
vt 0.8125 0.125
vt 0.875 0.125
vt 0.9375 0.125
vt 0 0.25
vt 0.0625 0.25
vt 0.125 0.25
vt 0.1875 0.25
vt 0.25 0.25
vt 0.3125 0.25
vt 0.375 0.25
vt 0.4375 0.25
vt 0.5 0.25
vt 0.5625 0.25
vt 0.625 0.25
vt 0.6875 0.25
vt 0.75 0.25
vt 0.8125 0.25
vt 0.875 0.25
vt 0.9375 0.25
vt 0 0.375
vt 0.0625 0.375
vt 0.125 0.375
vt 0.1875 0.375
vt 0.25 0.375
vt 0.3125 0.375
vt 0.375 0.375
vt 0.4375 0.375
vt 0.5 0.375
vt 0.5625 0.375
vt 0.625 0.375
vt 0.6875 0.375
vt 0.75 0.375
vt 0.8125 0.375
vt 0.875 0.375
vt 0.9375 0.375
vt 0 0.5
vt 0.0625 0.5
vt 0.125 0.5
vt 0.1875 0.5
vt 0.25 0.5
vt 0.3125 0.5
vt 0.375 0.5
vt 0.4375 0.5
vt 0.5 0.5
vt 0.5625 0.5
vt 0.625 0.5
vt 0.6875 0.5
vt 0.75 0.5
vt 0.8125 0.5
vt 0.875 0.5
vt 0.9375 0.5
vt 0 0.625
vt 0.0625 0.625
vt 0.125 0.625
vt 0.1875 0.625
vt 0.25 0.625
vt 0.3125 0.625
vt 0.375 0.625
vt 0.4375 0.625
vt 0.5 0.625
vt 0.5625 0.625
vt 0.625 0.625
vt 0.6875 0.625
vt 0.75 0.625
vt 0.8125 0.625
vt 0.875 0.625
vt 0.9375 0.625
vt 0 0.75
vt 0.0625 0.75
vt 0.125 0.75
vt 0.1875 0.75
vt 0.25 0.75
vt 0.3125 0.75
vt 0.375 0.75
vt 0.4375 0.75
vt 0.5 0.75
vt 0.5625 0.75
vt 0.625 0.75
vt 0.6875 0.75
vt 0.75 0.75
vt 0.8125 0.75
vt 0.875 0.75
vt 0.9375 0.75
vt 0 0.875
vt 0.0625 0.875
vt 0.125 0.875
vt 0.1875 0.875
vt 0.25 0.875
vt 0.3125 0.875
vt 0.375 0.875
vt 0.4375 0.875
vt 0.5 0.875
vt 0.5625 0.875
vt 0.625 0.875
vt 0.6875 0.875
vt 0.75 0.875
vt 0.8125 0.875
vt 0.875 0.875
vt 0.9375 0.875
vt 0 0
vt 0 1

usemap Standard737373
usemtl Standard737373
f 3/3/3 2/2/2 1/1/1 113/113/113 
f 5/5/5 4/4/4 3/3/3 113/113/113 
f 7/7/7 6/6/6 5/5/5 113/113/113 
f 9/9/9 8/8/8 7/7/7 113/113/113 
f 11/11/11 10/10/10 9/9/9 113/113/113 
f 13/13/13 12/12/12 11/11/11 113/113/113 
f 15/15/15 14/14/14 13/13/13 113/113/113 
f 1/1/1 16/16/16 15/15/15 113/113/113 
f 2/2/2 18/18/18 17/17/17 1/1/1 
f 3/3/3 19/19/19 18/18/18 2/2/2 
f 4/4/4 20/20/20 19/19/19 3/3/3 
f 5/5/5 21/21/21 20/20/20 4/4/4 
f 6/6/6 22/22/22 21/21/21 5/5/5 
f 7/7/7 23/23/23 22/22/22 6/6/6 
f 8/8/8 24/24/24 23/23/23 7/7/7 
f 9/9/9 25/25/25 24/24/24 8/8/8 
f 10/10/10 26/26/26 25/25/25 9/9/9 
f 11/11/11 27/27/27 26/26/26 10/10/10 
f 12/12/12 28/28/28 27/27/27 11/11/11 
f 13/13/13 29/29/29 28/28/28 12/12/12 
f 14/14/14 30/30/30 29/29/29 13/13/13 
f 15/15/15 31/31/31 30/30/30 14/14/14 
f 16/16/16 32/32/32 31/31/31 15/15/15 
f 1/1/1 17/17/17 32/32/32 16/16/16 
f 18/18/18 34/34/34 33/33/33 17/17/17 
f 19/19/19 35/35/35 34/34/34 18/18/18 
f 20/20/20 36/36/36 35/35/35 19/19/19 
f 21/21/21 37/37/37 36/36/36 20/20/20 
f 22/22/22 38/38/38 37/37/37 21/21/21 
f 23/23/23 39/39/39 38/38/38 22/22/22 
f 24/24/24 40/40/40 39/39/39 23/23/23 
f 25/25/25 41/41/41 40/40/40 24/24/24 
f 26/26/26 42/42/42 41/41/41 25/25/25 
f 27/27/27 43/43/43 42/42/42 26/26/26 
f 28/28/28 44/44/44 43/43/43 27/27/27 
f 29/29/29 45/45/45 44/44/44 28/28/28 
f 30/30/30 46/46/46 45/45/45 29/29/29 
f 31/31/31 47/47/47 46/46/46 30/30/30 
f 32/32/32 48/48/48 47/47/47 31/31/31 
f 17/17/17 33/33/33 48/48/48 32/32/32 
f 34/34/34 50/50/50 49/49/49 33/33/33 
f 35/35/35 51/51/51 50/50/50 34/34/34 
f 36/36/36 52/52/52 51/51/51 35/35/35 
f 37/37/37 53/53/53 52/52/52 36/36/36 
f 38/38/38 54/54/54 53/53/53 37/37/37 
f 39/39/39 55/55/55 54/54/54 38/38/38 
f 40/40/40 56/56/56 55/55/55 39/39/39 
f 41/41/41 57/57/57 56/56/56 40/40/40 
f 42/42/42 58/58/58 57/57/57 41/41/41 
f 43/43/43 59/59/59 58/58/58 42/42/42 
f 44/44/44 60/60/60 59/59/59 43/43/43 
f 45/45/45 61/61/61 60/60/60 44/44/44 
f 46/46/46 62/62/62 61/61/61 45/45/45 
f 47/47/47 63/63/63 62/62/62 46/46/46 
f 48/48/48 64/64/64 63/63/63 47/47/47 
f 33/33/33 49/49/49 64/64/64 48/48/48 
f 50/50/50 66/66/66 65/65/65 49/49/49 
f 51/51/51 67/67/67 66/66/66 50/50/50 
f 52/52/52 68/68/68 67/67/67 51/51/51 
f 53/53/53 69/69/69 68/68/68 52/52/52 
f 54/54/54 70/70/70 69/69/69 53/53/53 
f 55/55/55 71/71/71 70/70/70 54/54/54 
f 56/56/56 72/72/72 71/71/71 55/55/55 
f 57/57/57 73/73/73 72/72/72 56/56/56 
f 58/58/58 74/74/74 73/73/73 57/57/57 
f 59/59/59 75/75/75 74/74/74 58/58/58 
f 60/60/60 76/76/76 75/75/75 59/59/59 
f 61/61/61 77/77/77 76/76/76 60/60/60 
f 62/62/62 78/78/78 77/77/77 61/61/61 
f 63/63/63 79/79/79 78/78/78 62/62/62 
f 64/64/64 80/80/80 79/79/79 63/63/63 
f 49/49/49 65/65/65 80/80/80 64/64/64 
f 66/66/66 82/82/82 81/81/81 65/65/65 
f 67/67/67 83/83/83 82/82/82 66/66/66 
f 68/68/68 84/84/84 83/83/83 67/67/67 
f 69/69/69 85/85/85 84/84/84 68/68/68 
f 70/70/70 86/86/86 85/85/85 69/69/69 
f 71/71/71 87/87/87 86/86/86 70/70/70 
f 72/72/72 88/88/88 87/87/87 71/71/71 
f 73/73/73 89/89/89 88/88/88 72/72/72 
f 74/74/74 90/90/90 89/89/89 73/73/73 
f 75/75/75 91/91/91 90/90/90 74/74/74 
f 76/76/76 92/92/92 91/91/91 75/75/75 
f 77/77/77 93/93/93 92/92/92 76/76/76 
f 78/78/78 94/94/94 93/93/93 77/77/77 
f 79/79/79 95/95/95 94/94/94 78/78/78 
f 80/80/80 96/96/96 95/95/95 79/79/79 
f 65/65/65 81/81/81 96/96/96 80/80/80 
f 82/82/82 98/98/98 97/97/97 81/81/81 
f 83/83/83 99/99/99 98/98/98 82/82/82 
f 84/84/84 100/100/100 99/99/99 83/83/83 
f 85/85/85 101/101/101 100/100/100 84/84/84 
f 86/86/86 102/102/102 101/101/101 85/85/85 
f 87/87/87 103/103/103 102/102/102 86/86/86 
f 88/88/88 104/104/104 103/103/103 87/87/87 
f 89/89/89 105/105/105 104/104/104 88/88/88 
f 90/90/90 106/106/106 105/105/105 89/89/89 
f 91/91/91 107/107/107 106/106/106 90/90/90 
f 92/92/92 108/108/108 107/107/107 91/91/91 
f 93/93/93 109/109/109 108/108/108 92/92/92 
f 94/94/94 110/110/110 109/109/109 93/93/93 
f 95/95/95 111/111/111 110/110/110 94/94/94 
f 96/96/96 112/112/112 111/111/111 95/95/95 
f 81/81/81 97/97/97 112/112/112 96/96/96 
f 97/97/97 98/98/98 99/99/99 114/114/114 
f 99/99/99 100/100/100 101/101/101 114/114/114 
f 101/101/101 102/102/102 103/103/103 114/114/114 
f 103/103/103 104/104/104 105/105/105 114/114/114 
f 105/105/105 106/106/106 107/107/107 114/114/114 
f 107/107/107 108/108/108 109/109/109 114/114/114 
f 109/109/109 110/110/110 111/111/111 114/114/114 
f 111/111/111 112/112/112 97/97/97 114/114/114 
